<svg xmlns="http://www.w3.org/2000/svg" viewBox="0 0 760 430" width="760" height="430" role="img">
<rect width="760" height="430" fill="#ffffff"/>
<text x="380" y="24" font-family="Helvetica, Arial, sans-serif" font-size="14" font-weight="700" fill="#0f172a" text-anchor="middle">Student enrolments in three types of course, 2010 and 2025, and average student age</text>
<text x="190" y="46" font-family="Helvetica, Arial, sans-serif" font-size="12" font-weight="700" fill="#0f172a" text-anchor="middle">Number of students enrolled</text>
<line x1="52" y1="346" x2="364" y2="346" stroke="#cbd5e1" stroke-width="1"/><text x="44" y="350" font-family="Helvetica, Arial, sans-serif" font-size="11" font-weight="400" fill="#475569" text-anchor="end">0</text>
<line x1="52" y1="276" x2="364" y2="276" stroke="#cbd5e1" stroke-width="1"/><text x="44" y="280" font-family="Helvetica, Arial, sans-serif" font-size="11" font-weight="400" fill="#475569" text-anchor="end">500</text>
<line x1="52" y1="206" x2="364" y2="206" stroke="#cbd5e1" stroke-width="1"/><text x="44" y="210" font-family="Helvetica, Arial, sans-serif" font-size="11" font-weight="400" fill="#475569" text-anchor="end">1000</text>
<line x1="52" y1="136" x2="364" y2="136" stroke="#cbd5e1" stroke-width="1"/><text x="44" y="140" font-family="Helvetica, Arial, sans-serif" font-size="11" font-weight="400" fill="#475569" text-anchor="end">1500</text>
<line x1="52" y1="66" x2="364" y2="66" stroke="#cbd5e1" stroke-width="1"/><text x="44" y="70" font-family="Helvetica, Arial, sans-serif" font-size="11" font-weight="400" fill="#475569" text-anchor="end">2000</text>
<rect x="74" y="171" width="27" height="175" fill="#1d4ed8" rx="2"/><text x="87.5" y="165" font-family="Helvetica, Arial, sans-serif" font-size="10" font-weight="400" fill="#475569" text-anchor="middle">1250</text>
<rect x="104" y="208.8" width="27" height="137.2" fill="#dc2626" rx="2"/><text x="117.5" y="202.8" font-family="Helvetica, Arial, sans-serif" font-size="10" font-weight="400" fill="#475569" text-anchor="middle">980</text>
<text x="104" y="364" font-family="Helvetica, Arial, sans-serif" font-size="11" font-weight="400" fill="#475569" text-anchor="middle">Vocational</text>
<rect x="178" y="225.6" width="27" height="120.4" fill="#1d4ed8" rx="2"/><text x="191.5" y="219.6" font-family="Helvetica, Arial, sans-serif" font-size="10" font-weight="400" fill="#475569" text-anchor="middle">860</text>
<rect x="208" y="161.2" width="27" height="184.8" fill="#dc2626" rx="2"/><text x="221.5" y="155.2" font-family="Helvetica, Arial, sans-serif" font-size="10" font-weight="400" fill="#475569" text-anchor="middle">1320</text>
<text x="208" y="364" font-family="Helvetica, Arial, sans-serif" font-size="11" font-weight="400" fill="#475569" text-anchor="middle">Academic</text>
<rect x="282" y="326.4" width="27" height="19.600000000000023" fill="#1d4ed8" rx="2"/><text x="295.5" y="320.4" font-family="Helvetica, Arial, sans-serif" font-size="10" font-weight="400" fill="#475569" text-anchor="middle">140</text>
<rect x="312" y="120.6" width="27" height="225.4" fill="#dc2626" rx="2"/><text x="325.5" y="114.6" font-family="Helvetica, Arial, sans-serif" font-size="10" font-weight="400" fill="#475569" text-anchor="middle">1610</text>
<text x="312" y="364" font-family="Helvetica, Arial, sans-serif" font-size="11" font-weight="400" fill="#475569" text-anchor="middle">Online</text>
<rect x="52" y="388" width="12" height="9" fill="#1d4ed8" rx="2"/><text x="69" y="396" font-family="Helvetica, Arial, sans-serif" font-size="11" font-weight="400" fill="#475569" text-anchor="start">2010</text>
<rect x="144" y="388" width="12" height="9" fill="#dc2626" rx="2"/><text x="161" y="396" font-family="Helvetica, Arial, sans-serif" font-size="11" font-weight="400" fill="#475569" text-anchor="start">2025</text>
<text x="14" y="206" font-family="Helvetica, Arial, sans-serif" font-size="11" font-weight="400" fill="#475569" text-anchor="middle" transform="rotate(-90 14 206)">Students</text>
<line x1="380" y1="32" x2="380" y2="400" stroke="#cbd5e1" stroke-width="1"/>
<text x="570" y="46" font-family="Helvetica, Arial, sans-serif" font-size="12" font-weight="700" fill="#0f172a" text-anchor="middle">Average age of students, 2025</text>
<line x1="432" y1="346" x2="744" y2="346" stroke="#cbd5e1" stroke-width="1"/><text x="424" y="350" font-family="Helvetica, Arial, sans-serif" font-size="11" font-weight="400" fill="#475569" text-anchor="end">0</text>
<line x1="432" y1="276" x2="744" y2="276" stroke="#cbd5e1" stroke-width="1"/><text x="424" y="280" font-family="Helvetica, Arial, sans-serif" font-size="11" font-weight="400" fill="#475569" text-anchor="end">10</text>
<line x1="432" y1="206" x2="744" y2="206" stroke="#cbd5e1" stroke-width="1"/><text x="424" y="210" font-family="Helvetica, Arial, sans-serif" font-size="11" font-weight="400" fill="#475569" text-anchor="end">20</text>
<line x1="432" y1="136" x2="744" y2="136" stroke="#cbd5e1" stroke-width="1"/><text x="424" y="140" font-family="Helvetica, Arial, sans-serif" font-size="11" font-weight="400" fill="#475569" text-anchor="end">30</text>
<line x1="432" y1="66" x2="744" y2="66" stroke="#cbd5e1" stroke-width="1"/><text x="424" y="70" font-family="Helvetica, Arial, sans-serif" font-size="11" font-weight="400" fill="#475569" text-anchor="end">40</text>
<rect x="469" y="157" width="27" height="189" fill="#d97706" rx="2"/><text x="482.5" y="151" font-family="Helvetica, Arial, sans-serif" font-size="10" font-weight="400" fill="#475569" text-anchor="middle">27</text>
<text x="484" y="364" font-family="Helvetica, Arial, sans-serif" font-size="11" font-weight="400" fill="#475569" text-anchor="middle">Vocational</text>
<rect x="573" y="206" width="27" height="140" fill="#d97706" rx="2"/><text x="586.5" y="200" font-family="Helvetica, Arial, sans-serif" font-size="10" font-weight="400" fill="#475569" text-anchor="middle">20</text>
<text x="588" y="364" font-family="Helvetica, Arial, sans-serif" font-size="11" font-weight="400" fill="#475569" text-anchor="middle">Academic</text>
<rect x="677" y="108" width="27" height="238" fill="#d97706" rx="2"/><text x="690.5" y="102" font-family="Helvetica, Arial, sans-serif" font-size="10" font-weight="400" fill="#475569" text-anchor="middle">34</text>
<text x="692" y="364" font-family="Helvetica, Arial, sans-serif" font-size="11" font-weight="400" fill="#475569" text-anchor="middle">Online</text>
<text x="394" y="206" font-family="Helvetica, Arial, sans-serif" font-size="11" font-weight="400" fill="#475569" text-anchor="middle" transform="rotate(-90 394 206)">Years</text>
</svg>